<?xml version="1.0" encoding="UTF-8"?>
<svg id="_Слой_1" data-name="Слой 1" xmlns="http://www.w3.org/2000/svg" width="252.79mm" height="66.73mm" viewBox="0 0 716.57 189.17">
  <defs>
    <style>
      .cls-1 {
        fill: #071e57;
      }

      .cls-2 {
        fill: #0867fc;
      }
    </style>
  </defs>
  <g>
    <path class="cls-1" d="M42.12,164.71c-4.67,0-8.31-1.3-10.91-3.9-2.6-2.6-3.9-6.3-3.9-11.1V40.82c0-4.8,1.3-8.5,3.9-11.1,2.6-2.6,6.3-3.9,11.1-3.9h47.53c15.32,0,27.14,3.87,35.45,11.59,8.31,7.73,12.47,18.47,12.47,32.24s-4.16,24.51-12.47,32.24c-8.31,7.73-20.13,11.59-35.45,11.59H57.12v36.23c0,10-5,15-15,15Zm24.74-74.21h18.12c16.23,0,24.35-6.95,24.35-20.84s-8.12-20.65-24.35-20.65h-27.85v41.49h9.74Z"/>
    <path class="cls-1" d="M148.86,159.06c-2.73-2.73-4.09-6.56-4.09-11.49V41.41c0-4.93,1.36-8.76,4.09-11.49,2.73-2.73,6.56-4.09,11.49-4.09h47.14c14.54,0,25.84,3.18,33.89,9.54,8.05,6.36,12.08,15.07,12.08,26.1,0,8.31-2.37,15.29-7.11,20.94-4.74,5.65-11.2,9.45-19.38,11.4v-2.92c9.48,1.43,16.85,5.06,22.11,10.91,5.26,5.84,7.89,13.44,7.89,22.79,0,12.08-4.19,21.52-12.56,28.34-8.38,6.82-19.96,10.23-34.77,10.23h-49.28c-4.94,0-8.77-1.36-11.49-4.09Zm34.67-76.55h18.89c7.53,0,13.18-1.46,16.95-4.38,3.76-2.92,5.65-7.24,5.65-12.95s-1.88-10.16-5.65-12.95c-3.77-2.79-9.42-4.19-16.95-4.19h-29.02v34.48h10.13Zm1.17,58.44h21.04c7.79,0,13.54-1.49,17.24-4.48,3.7-2.99,5.55-7.53,5.55-13.64s-1.85-10.81-5.55-13.73c-3.7-2.92-9.45-4.38-17.24-4.38h-32.33v36.23h11.3Z"/>
    <path class="cls-1" d="M273.52,164.71c-3.77,0-6.92-1.01-9.45-3.02s-3.96-4.58-4.29-7.69c-.33-3.12,.75-6.3,3.21-9.54,3.25-4.15,6.14-7.95,8.67-11.4,2.53-3.44,5.32-7.21,8.38-11.3,3.05-4.09,6.1-8.15,9.16-12.17,3.05-4.02,5.84-7.76,8.38-11.2,2.53-3.44,5.36-7.17,8.47-11.2v13.05c-4.03-5.32-7.6-10.1-10.71-14.32-3.12-4.22-6.43-8.67-9.93-13.34-3.51-4.67-6.85-9.12-10.03-13.34-3.18-4.22-6.79-8.99-10.81-14.32-2.47-3.38-3.51-6.65-3.12-9.84,.39-3.18,1.82-5.78,4.29-7.79,2.46-2.01,5.58-3.02,9.35-3.02,3.12,0,5.87,.71,8.28,2.14,2.4,1.43,4.77,3.9,7.11,7.4,3.25,4.29,6.07,8.12,8.47,11.49,2.4,3.38,5,6.98,7.79,10.81,2.79,3.83,5.39,7.44,7.79,10.81,2.4,3.38,5.23,7.21,8.47,11.49h-9.74c3.12-4.29,5.94-8.11,8.47-11.49,2.53-3.38,5.16-6.98,7.89-10.81,2.73-3.83,5.32-7.43,7.79-10.81,2.46-3.38,5.26-7.21,8.38-11.49,2.47-3.51,4.87-5.97,7.21-7.4,2.34-1.43,5.06-2.14,8.18-2.14,3.9,0,7.08,1.01,9.54,3.02,2.46,2.01,3.9,4.61,4.29,7.79,.39,3.18-.72,6.46-3.31,9.84-4.03,5.33-7.63,10.1-10.81,14.32-3.18,4.22-6.53,8.67-10.03,13.34-3.51,4.67-6.85,9.12-10.03,13.34-3.18,4.22-6.79,8.99-10.81,14.32v-13.05c3.24,4.03,6.14,7.76,8.67,11.2,2.53,3.44,5.32,7.18,8.38,11.2,3.05,4.03,6.1,8.08,9.16,12.17,3.05,4.09,5.84,7.86,8.38,11.3,2.53,3.44,5.36,7.24,8.47,11.4,2.6,3.25,3.7,6.43,3.31,9.54-.39,3.12-1.82,5.68-4.29,7.69-2.47,2.01-5.65,3.02-9.54,3.02-2.99,0-5.68-.75-8.08-2.24-2.4-1.49-4.84-3.93-7.3-7.3-3.25-4.41-6.17-8.41-8.77-11.98-2.6-3.57-5.33-7.33-8.18-11.3-2.86-3.96-5.58-7.72-8.18-11.3-2.6-3.57-5.52-7.56-8.77-11.98h9.74c-3.25,4.42-6.17,8.41-8.76,11.98-2.6,3.57-5.33,7.34-8.18,11.3-2.86,3.96-5.58,7.73-8.18,11.3-2.6,3.57-5.52,7.57-8.77,11.98-2.47,3.38-4.9,5.81-7.3,7.3-2.4,1.49-5.16,2.24-8.28,2.24Z"/>
  </g>
  <g>
    <path class="cls-2" d="M410.32,164.51c-2.49,0-4.42-.85-5.77-2.53-1.36-1.69-2.03-4.09-2.03-7.21V35.56c0-3.25,.7-5.68,2.11-7.3,1.41-1.62,3.36-2.43,5.85-2.43h38.69c12.46,0,22.03,3.67,28.69,11,6.67,7.34,10,17.56,10,30.68s-3.33,23.54-10,30.87c-6.66,7.34-16.23,11.01-28.69,11.01h-30.88v45.38c0,6.5-2.66,9.74-7.96,9.74Zm18.12-70.51h18.61c16.91,0,25.36-8.83,25.36-26.49s-8.45-26.3-25.36-26.3h-28.77v52.79h10.16Z"/>
    <path class="cls-2" d="M526.87,164.9c-9.75,0-16.99-3.21-21.7-9.64s-7.07-15.94-7.07-28.54v-50.45c0-3.12,.65-5.45,1.95-7.01,1.3-1.56,3.2-2.34,5.69-2.34s4.41,.78,5.77,2.34c1.35,1.56,2.03,3.9,2.03,7.01v50.45c0,7.79,1.35,13.6,4.06,17.43,2.71,3.83,6.93,5.75,12.68,5.75,6.39,0,11.57-2.56,15.52-7.69,3.96-5.13,5.93-11.91,5.93-20.36v-45.58c0-3.12,.65-5.45,1.95-7.01,1.3-1.56,3.2-2.34,5.69-2.34s4.41,.78,5.77,2.34c1.35,1.56,2.03,3.9,2.03,7.01v78.89c0,6.23-2.49,9.35-7.48,9.35s-7.64-3.12-7.64-9.35v-16.95c.76,1.17,1.46,2.4,2.11,3.7-2.17,7.53-5.66,13.25-10.48,17.14-4.82,3.9-10.43,5.84-16.82,5.84Z"/>
    <path class="cls-2" d="M610.42,164.9c-8.35,0-14.6-2.89-18.77-8.67-4.17-5.78-6.26-14.25-6.26-25.42V33.81c0-6.23,2.54-9.35,7.64-9.35s7.8,3.12,7.8,9.35v95.84c0,6.75,1.11,11.75,3.33,15,2.22,3.25,5.34,4.87,9.35,4.87,.97,0,1.84-.06,2.6-.2,.76-.13,1.57-.26,2.44-.39,1.3,0,2.25,.46,2.84,1.36,.59,.91,.89,2.73,.89,5.45s-.49,4.55-1.46,5.84c-.98,1.3-2.55,2.21-4.71,2.73-.76,.13-1.68,.26-2.76,.39-1.08,.13-2.06,.19-2.93,.19Z"/>
    <path class="cls-2" d="M656.91,164.9c-4.99,0-9.83-.68-14.55-2.04-4.71-1.36-9.24-3.67-13.57-6.92-1.74-1.04-2.82-2.47-3.25-4.29-.43-1.82-.38-3.57,.16-5.26,.54-1.69,1.49-2.92,2.84-3.7,1.35-.78,2.95-.65,4.79,.39,4.23,2.99,8.32,5.1,12.27,6.33,3.96,1.24,7.83,1.85,11.62,1.85,5.85,0,10.27-1.27,13.25-3.8,2.98-2.53,4.47-5.94,4.47-10.23,0-3.51-.98-6.2-2.93-8.08-1.95-1.88-4.99-3.41-9.1-4.58-3.14-.78-5.69-1.43-7.64-1.95-1.95-.52-4.5-1.1-7.64-1.75-6.83-1.82-11.92-4.8-15.28-8.96-3.36-4.16-5.04-9.61-5.04-16.36,0-5.84,1.33-10.97,3.98-15.39,2.65-4.41,6.39-7.79,11.22-10.13,4.82-2.34,10.32-3.51,16.5-3.51,4.88,0,9.43,.71,13.65,2.14,4.23,1.43,8.02,3.7,11.38,6.82,1.63,1.04,2.63,2.47,3.01,4.29,.38,1.82,.22,3.54-.49,5.16-.71,1.62-1.73,2.76-3.09,3.41-1.36,.65-2.95,.39-4.8-.78-3.25-2.47-6.5-4.32-9.75-5.55-3.25-1.23-6.5-1.85-9.75-1.85-5.75,0-10.11,1.33-13.08,3.99-2.98,2.66-4.47,6.14-4.47,10.42,0,3.38,.89,6.1,2.68,8.18,1.79,2.08,4.58,3.64,8.37,4.67,3.14,.78,5.71,1.43,7.72,1.95,2,.52,4.52,1.17,7.56,1.95,7.04,1.69,12.35,4.55,15.93,8.57,3.58,4.03,5.36,9.42,5.36,16.17,0,8.96-2.95,16.01-8.86,21.13-5.91,5.13-13.74,7.69-23.49,7.69Z"/>
  </g>
</svg>