<?xml version="1.0" encoding="UTF-8"?>
<svg id="_Слой_1" data-name="Слой 1" xmlns="http://www.w3.org/2000/svg" width="167.08mm" height="162.86mm" viewBox="0 0 473.62 461.65">
  <defs>
    <style>
      .cls-1 {
        fill: #0867fc;
      }
    </style>
  </defs>
  <path class="cls-1" d="M237.02,277.81c-3.95,.17-7.54-.93-10.93-2.94-32.93-19.53-65.87-39.06-98.82-58.56-30.87-18.27-61.77-36.49-92.64-54.76-1.58-.94-3.31-1.47-4.96-2.19-4.75-2.05-7.73-5.55-7.98-11-.25-5.41,2.89-8.14,7.28-10.54,8.89-4.86,17.58-10.1,26.27-15.31,12.93-7.76,25.89-15.48,38.67-23.48,17.2-10.77,35.01-20.49,52.09-31.5,15.96-10.29,32.71-19.33,49.05-29.03,10.11-6,19.89-12.59,30.21-18.2,8.03-4.37,16.57-4.03,24.6,.75,16.24,9.67,32.45,19.38,48.64,29.13,32.29,19.44,64.53,38.94,96.84,58.35,15.93,9.57,31.95,18.98,47.92,28.49,2.83,1.69,5.85,3.08,7.47,6.34,2.72,5.5,1.46,10.55-3.83,13.69-40.92,24.32-81.85,48.64-122.81,72.9-25.5,15.1-51.07,30.09-76.59,45.17-3.26,1.93-6.72,2.82-10.47,2.7Zm54.03-131.05c3.44,3.65,5.69,7.69,11.16,7.52,10.98-.35,21.98-.15,32.96-.35,5.17-.09,8.46-2.94,8.31-6.72-.15-3.77-3.6-6.51-8.6-6.58-5.99-.09-12.08-.68-17.97,.13-9.71,1.33-16.13-1.92-19.95-10.99-1.47-3.5-4.75-5.1-8.65-4.6-3.79,.48-6.42,2.65-7.68,6.28-2.35,6.76-4.59,13.55-6.95,20.3-.65,1.87-.88,4.05-3.01,5.74-5.85-25.09-11.57-49.62-17.28-74.15-1.46-6.29-4.34-9.68-8.55-9.36-5.36,.42-7.57,4.2-8.6,8.96-.11,.49-.21,.98-.34,1.46-6.06,21.42-12.12,42.85-18.21,64.26-1.43,5.03-2.99,10.03-4.82,16.11-.92-2.29-1.43-3.44-1.84-4.63-4.28-12.59-8.65-25.16-12.77-37.8-1.31-4.03-3.46-6.87-7.74-7.46-4.64-.64-7.37,2.03-9.46,5.85-3.04,5.55-6.41,10.91-9.4,16.48-1.37,2.56-3.13,3.44-5.97,3.41-8.99-.12-17.99-.09-26.98,.07-4.61,.08-7.87,2.99-8,6.66-.13,3.78,2.89,6.58,7.74,6.64,11.15,.14,22.31,.05,33.47,.09,4.8,.02,8.25-2.14,10.57-6.27,1.52-2.7,3.06-5.39,4.69-8.27,1.87,2.05,2.17,4.24,2.85,6.25,4.95,14.66,9.9,29.32,14.78,44,1.4,4.21,3.32,7.94,8.41,7.77,5.06-.16,7.47-3.57,8.76-8.16,3.59-12.78,7.27-25.53,10.98-38.27,3.62-12.4,7.32-24.77,11.29-38.17,.76,2.34,1.25,3.54,1.54,4.79,5.15,22.17,10.35,44.32,15.34,66.52,1.02,4.55,2.92,7.92,7.89,8.12,4.88,.19,7.32-2.76,8.78-7.27,4.08-12.63,7.83-25.38,13.23-38.37Z"/>
  <path class="cls-1" d="M76.83,300.9c23.06,13.67,45.41,26.91,67.74,40.17,27.92,16.58,55.86,33.13,83.73,49.79,6.32,3.78,12.23,3.28,18.33-.36,42.48-25.34,84.98-50.64,127.48-75.94,12.59-7.5,25.23-14.91,37.81-22.44,5.02-3,10.15-3.29,15.2-.55,6.72,3.66,13.4,7.44,19.84,11.57,7.25,4.65,6.81,16.1-.73,20.62-23.99,14.39-48.06,28.64-72.08,42.99-20.05,11.98-40.03,24.1-60.12,36.01-21.89,12.97-43.64,26.21-65.94,38.43-8.58,4.7-17.91,4.48-26.88-1.92-6.88-4.91-14.76-8.58-22.05-12.95-7.26-4.36-15.25-7.58-21.81-13.17-4.37-3.72-9.85-5.98-14.84-8.54-7.34-3.75-13.51-9.24-21.11-12.62-4.63-2.06-8.77-5.7-13.29-8.39-20.18-12.01-40.33-24.09-60.51-36.12-13.06-7.79-26.63-14.68-39.46-22.89-8.09-5.18-8.85-17.61,.34-22.79,13.51-7.62,26.84-15.56,40.21-23.42,5.3-3.12,4.63-2.81,1.35-8.3-4.76-7.95-12.75-10.8-20.03-15.1-7.64-4.51-15.52-8.68-22.89-13.54-8.31-5.48-7.29-18,1.82-22.83,5.2-2.75,10.01-6.05,15.08-8.94,7.36-4.19,14.08-4.11,21.48,.31,54.07,32.21,108.3,64.17,162.42,96.3,6.44,3.82,12.46,3.69,18.79-.07,53.13-31.54,106.39-62.85,159.34-94.69,9.73-5.85,18-6.44,27.04,.41,3.53,2.68,7.63,4.62,11.51,6.85,9.91,5.7,10.02,17.06,.47,23.12-14.14,8.98-28.89,16.89-43.31,25.38-49.77,29.27-99.68,58.3-149.34,87.75-8.73,5.18-17.04,7.32-26.3,2.47-4.28-2.24-8.43-4.72-12.58-7.18-33.98-20.09-68.03-40.07-101.86-60.4-6.04-3.63-10.87-4.21-16.82,0-5.5,3.9-11.89,6.52-18.03,11Z"/>
</svg>